<svg width="1200" height="850" xmlns="http://www.w3.org/2000/svg" xmlns:svg="http://www.w3.org/2000/svg" xmlns:se="http://svg-edit.googlecode.com">
 <defs>
  <linearGradient id="majorProjectGradient" x1="0%" x2="100%" y1="0%" y2="100%">
   <stop offset="0%" stop-color="#3b82f6" stop-opacity="0.1"/>
   <stop offset="100%" stop-color="#1d4ed8" stop-opacity="0.1"/>
  </linearGradient>
  <linearGradient id="minorProjectGradient" x1="0%" x2="100%" y1="0%" y2="100%">
   <stop offset="0%" stop-color="#10b981" stop-opacity="0.1"/>
   <stop offset="100%" stop-color="#059669" stop-opacity="0.1"/>
  </linearGradient>
  <linearGradient id="internshipGradient" x1="0%" x2="100%" y1="0%" y2="100%">
   <stop offset="0%" stop-color="#f59e0b" stop-opacity="0.1"/>
   <stop offset="100%" stop-color="#d97706" stop-opacity="0.1"/>
  </linearGradient>
  <filter height="140%" id="shadow" width="140%" x="-20%" y="-20%"/>
 </defs>
 <!-- Background -->
 <!-- Main Header -->
 <!-- Personal Projects Section -->
 <!-- Major Projects Subsection -->
 <!-- Major Project 1 -->
 <!-- Major Project 2 -->
 <!-- Major Project 3 -->
 <!-- Major Project 4 -->
 <!-- Minor Projects Subsection -->
 <!-- Minor Project 1 -->
 <!-- Minor Project 2 -->
 <!-- Internship Projects Section -->
 <!-- Internship Project Container -->
 <!-- Internship Project -->
 <g class="layer">
  <title>Layer 1</title>
  <polyline fill="none" id="conn_svg_62" points="330.216 532.22 330.261 534.5 330.307 536.78" se:connector="svg_37 svg_38" stroke="#000000" stroke-width="5"/>
  <rect fill="#f8fafc" height="850" id="svg_1" transform="matrix(0.839021 0 0 0.903268 77.6982 0)" width="1200" x="0" y="0"/>
  <rect fill="#07f77b" filter="url(#shadow)" height="70" id="svg_2" rx="12" width="978.89" x="92.22" y="65.56"/>
  <text fill="#ff007f" font-family="Arial, sans-serif" font-size="49.66" font-weight="bold" id="svg_3" text-anchor="middle" x="579.44" y="52.52">My Project Portfolio</text>
  <rect fill="white" filter="url(#shadow)" height="680" id="svg_4" rx="16" stroke="#e2e8f0" stroke-width="2" width="520" x="70" y="67.78"/>
  <text fill="#1e293b" font-family="Arial, sans-serif" font-size="24" font-weight="bold" id="svg_5" text-anchor="middle" x="330" y="107.78">Personal Projects</text>
  <rect fill="url(#majorProjectGradient)" height="360" id="svg_6" rx="12" stroke="#3b82f6" width="480" x="90" y="127.78"/>
  <text fill="#1e40af" font-family="Arial, sans-serif" font-size="18" font-weight="bold" id="svg_7" text-anchor="middle" x="330" y="157.78">Major Projects</text>
  <rect fill="white" height="70" id="svg_8" rx="8" stroke="#cbd5e1" width="440" x="110" y="172.78"/>
  <text fill="#1e293b" font-family="Arial, sans-serif" font-size="14" font-weight="bold" id="svg_9" x="120" y="192.78">Python Desktop HRMS Application</text>
  <text fill="#64748b" font-family="Arial, sans-serif" font-size="12" id="svg_10" x="120" y="212.78">Python, PyQt5, MySQL</text>
  <text fill="#059669" font-family="Arial, sans-serif" font-size="12" font-weight="bold" id="svg_11" x="120" y="232.78">Status: Working On</text>
  <a href="#" id="svg_12" transform="translate(2.22222 -21.1111) translate(-2.22222 -41.1111) translate(0 -11.1111) translate(0 11.1111) translate(0 11.1111) translate(0 11.1111) translate(0 11.1111) translate(0 -11.1111) translate(0 -11.1111) translate(0 -11.1111)">
   <rect fill="#3b82f6" height="25" id="svg_13" rx="4" width="80" x="450" y="258"/>
   <text fill="white" font-family="Arial, sans-serif" font-size="11" id="svg_14" text-anchor="middle" x="490" y="275">View Project</text>
  </a>
  <rect fill="white" height="70" id="svg_15" rx="8" stroke="#cbd5e1" width="440" x="110" y="252.78"/>
  <text fill="#1e293b" font-family="Arial, sans-serif" font-size="14" font-weight="bold" id="svg_16" x="120" y="272.78">Dynamic Data Entry Form Generator</text>
  <text fill="#64748b" font-family="Arial, sans-serif" font-size="12" id="svg_17" x="120" y="292.78">Python, tkinter, customtkinter, MySQL</text>
  <text fill="#059669" font-family="Arial, sans-serif" font-size="12" font-weight="bold" id="svg_18" x="120" y="312.78">Status: Working On</text>
  <a href="#" id="svg_19" transform="translate(2.22222 -21.1111) translate(-2.22222 -41.1111) translate(0 -11.1111) translate(0 11.1111) translate(0 11.1111) translate(0 11.1111) translate(0 11.1111) translate(0 -11.1111) translate(0 -11.1111) translate(0 -11.1111)">
   <rect fill="#3b82f6" height="25" id="svg_20" rx="4" width="80" x="450" y="340"/>
   <text fill="white" font-family="Arial, sans-serif" font-size="11" id="svg_21" text-anchor="middle" x="490" y="357">View Project</text>
  </a>
  <rect fill="white" height="70" id="svg_22" rx="8" stroke="#cbd5e1" width="440" x="110" y="332.78"/>
  <text fill="#1e293b" font-family="Arial, sans-serif" font-size="14" font-weight="bold" id="svg_23" x="120" y="352.78">Real Life HRMS for SME Companies</text>
  <text fill="#64748b" font-family="Arial, sans-serif" font-size="12" id="svg_24" x="120" y="372.78">Visual Basic 6.0, MS Access</text>
  <text fill="#dc2626" font-family="Arial, sans-serif" font-size="12" font-weight="bold" id="svg_25" x="120" y="392.78">Status: Near Deployment !!</text>
  <a href="#" id="svg_26" transform="translate(2.22222 -21.1111) translate(-2.22222 -41.1111) translate(0 -11.1111) translate(0 11.1111) translate(0 11.1111) translate(0 11.1111) translate(0 11.1111) translate(0 -11.1111) translate(0 -11.1111) translate(0 -11.1111) translate(0 -1)">
   <rect fill="#3b82f6" height="25" id="svg_27" rx="4" width="80" x="450" y="420"/>
   <text fill="white" font-family="Arial, sans-serif" font-size="11" id="svg_28" text-anchor="middle" x="490" y="437">View Project</text>
  </a>
  <rect fill="white" height="65" id="svg_29" rx="8" stroke="#cbd5e1" width="440" x="110" y="412.78"/>
  <text fill="#1e293b" font-family="Arial, sans-serif" font-size="14" font-weight="bold" id="svg_30" x="120" y="432.78">Complete Data Analysis with SQL</text>
  <text fill="#64748b" font-family="Arial, sans-serif" font-size="12" id="svg_31" x="120" y="452.78">SQL, Python, Tableau/Power BI</text>
  <text fill="#f59e0b" font-family="Arial, sans-serif" font-size="12" font-weight="bold" id="svg_32" x="120" y="470.78">Status: Upcoming</text>
  <a href="#" id="svg_33" transform="translate(2.22222 -21.1111) translate(-2.22222 -41.1111) translate(0 -11.1111) translate(0 11.1111) translate(0 11.1111) translate(0 11.1111) translate(0 11.1111) translate(0 -11.1111) translate(0 -11.1111) translate(0 -11.1111)">
   <rect fill="#3b82f6" height="25" id="svg_34" rx="4" width="80" x="450" y="495"/>
   <text fill="white" font-family="Arial, sans-serif" font-size="11" id="svg_35" text-anchor="middle" x="490" y="512">View Project</text>
  </a>
  <rect fill="url(#minorProjectGradient)" height="193" id="svg_36" rx="12" stroke="#10b981" width="480" x="91" y="501.78"/>
  <text fill="#065f46" font-family="Arial, sans-serif" font-size="18" font-weight="bold" id="svg_37" text-anchor="middle" x="330" y="527.78">Minor Projects</text>
  <rect fill="white" height="70" id="svg_38" rx="8" stroke="#cbd5e1" width="440" x="111" y="536.78"/>
  <text fill="#1e293b" font-family="Arial, sans-serif" font-size="14" font-weight="bold" id="svg_39" x="119" y="559.78">Custom Trim Function in Excel</text>
  <text fill="#64748b" font-family="Arial, sans-serif" font-size="12" id="svg_40" x="120" y="579.78">VBA</text>
  <text fill="#059669" font-family="Arial, sans-serif" font-size="12" font-weight="bold" id="svg_41" x="120" y="597.78">Status: Complete</text>
  <a href="#" id="svg_42" transform="translate(2.22222 -21.1111) translate(-2.22222 -41.1111) translate(0 -11.1111) translate(0 11.1111) translate(0 11.1111) translate(0 11.1111) translate(0 11.1111) translate(0 -11.1111) translate(0 -11.1111) translate(0 -11.1111) translate(1 -40) matrix(1 0 0 1 0 17)">
   <rect fill="#10b981" height="25" id="svg_43" rx="4" width="80" x="450" y="645"/>
   <text fill="white" font-family="Arial, sans-serif" font-size="11" id="svg_44" text-anchor="middle" x="490" y="662">View Project</text>
  </a>
  <rect fill="white" height="70" id="svg_45" rx="8" stroke="#cbd5e1" width="440" x="112" y="615.78"/>
  <text fill="#1e293b" font-family="Arial, sans-serif" font-size="14" font-weight="bold" id="svg_46" x="122" y="635.78">Python CLI CRUD Software</text>
  <text fill="#64748b" font-family="Arial, sans-serif" font-size="12" id="svg_47" x="122" y="656.78">Python, MySQL</text>
  <text fill="#059669" font-family="Arial, sans-serif" font-size="12" font-weight="bold" id="svg_48" x="121" y="675.78">Status: Complete</text>
  <a href="#" id="svg_49" transform="translate(2.22222 -21.1111) translate(-2.22222 -41.1111) translate(0 -11.1111) translate(0 11.1111) translate(0 11.1111) translate(0 11.1111) translate(0 11.1111) translate(0 -11.1111) translate(0 -11.1111) translate(0 -11.1111) translate(0 -37) matrix(1 0 0 1 1 13)">
   <rect fill="#10b981" height="25" id="svg_50" rx="4" width="80" x="450" y="725"/>
   <text fill="white" font-family="Arial, sans-serif" font-size="11" id="svg_51" text-anchor="middle" x="490" y="742">View Project</text>
  </a>
  <rect fill="white" filter="url(#shadow)" height="300" id="svg_52" rx="16" stroke="#e2e8f0" stroke-width="2" width="520" x="572" y="71.78"/>
  <text fill="#1e293b" font-family="Arial, sans-serif" font-size="24" font-weight="bold" id="svg_53" text-anchor="middle" x="830.89" y="107.67">Internship Projects</text>
  <rect fill="url(#internshipGradient)" height="220" id="svg_54" rx="12" stroke="#f59e0b" width="480" x="590.89" y="127.67"/>
  <rect fill="white" height="71" id="svg_55" rx="8" stroke="#cbd5e1" width="440" x="610.89" y="157.67"/>
  <text fill="#1e293b" font-family="Arial, sans-serif" font-size="14" font-weight="bold" id="svg_56" x="620.89" y="177.67">Raw Data Collection and Cleaning</text>
  <text fill="#64748b" font-family="Arial, sans-serif" font-size="12" id="svg_57" x="620.89" y="197.67">Tech: Excel, Instant Data Scraper</text>
  <text fill="#059669" font-family="Arial, sans-serif" font-size="12" font-weight="bold" id="svg_58" x="620.89" y="217.67">Status: Complete</text>
  <a href="#" id="svg_59" transform="translate(-1.11111 -1.11111) translate(2.22222 -21.1111) matrix(1 0 0 1 -40.2222 -26.1111)">
   <rect fill="#f59e0b" height="25" id="svg_60" rx="4" width="80" x="990" y="230"/>
   <text fill="white" font-family="Arial, sans-serif" font-size="11" id="svg_61" text-anchor="middle" x="1030" y="247">View Project</text>
  </a>
 </g>
</svg>
