<?xml version="1.0"?>
<svg width="1200" height="850" xmlns="http://www.w3.org/2000/svg" xmlns:svg="http://www.w3.org/2000/svg" xmlns:se="http://svg-edit.googlecode.com">
 <defs>
  <linearGradient id="headerGradient" x1="0%" x2="100%" y1="0%" y2="0%">
   <stop offset="0%" stop-color="#4f46e5"/>
   <stop offset="100%" stop-color="#7c3aed"/>
  </linearGradient>
  <linearGradient id="majorProjectGradient" x1="0%" x2="100%" y1="0%" y2="100%">
   <stop offset="0%" stop-color="#3b82f6" stop-opacity="0.1"/>
   <stop offset="100%" stop-color="#1d4ed8" stop-opacity="0.1"/>
  </linearGradient>
  <linearGradient id="minorProjectGradient" x1="0%" x2="100%" y1="0%" y2="100%">
   <stop offset="0%" stop-color="#10b981" stop-opacity="0.1"/>
   <stop offset="100%" stop-color="#059669" stop-opacity="0.1"/>
  </linearGradient>
  <linearGradient id="internshipGradient" x1="0%" x2="100%" y1="0%" y2="100%">
   <stop offset="0%" stop-color="#f59e0b" stop-opacity="0.1"/>
   <stop offset="100%" stop-color="#d97706" stop-opacity="0.1"/>
  </linearGradient>
  <filter height="140%" id="shadow" width="140%" x="-20%" y="-20%"/>
 </defs>
 <!-- Background -->
 <!-- Main Header -->
 <!-- Personal Projects Section -->
 <!-- Major Projects Subsection -->
 <!-- Major Project 1 -->
 <!-- Major Project 2 -->
 <!-- Major Project 3 -->
 <!-- Major Project 4 -->
 <!-- Minor Projects Subsection -->
 <!-- Minor Project 1 -->
 <!-- Minor Project 2 -->
 <!-- Internship Projects Section -->
 <!-- Internship Project Container -->
 <!-- Internship Project -->
 <g class="layer">
  <title>Layer 1</title>
  <polyline fill="none" id="conn_svg_62" points="330.213 594 330.257 596.25 330.301 598.5" se:connector="svg_37 svg_38" stroke="#000000" stroke-width="5" transform="matrix(1 0 0 1 0 0)"/>
  <rect fill="#f8fafc" height="850" id="svg_1" width="1200"/>
  <rect fill="url(#headerGradient)" filter="url(#shadow)" height="70" id="svg_2" rx="12" width="1100" x="50" y="30"/>
  <text fill="white" font-family="Arial, sans-serif" font-size="32" font-weight="bold" id="svg_3" text-anchor="middle" x="600" y="75">My Project Portfolio</text>
  <rect fill="white" filter="url(#shadow)" height="680" id="svg_4" rx="16" stroke="#e2e8f0" stroke-width="2" transform="matrix(1 0 0 1 0 0)" width="520" x="70" y="130"/>
  <text fill="#1e293b" font-family="Arial, sans-serif" font-size="24" font-weight="bold" id="svg_5" text-anchor="middle" x="330" y="170">Personal Projects</text>
  <rect fill="url(#majorProjectGradient)" height="360" id="svg_6" rx="12" stroke="#3b82f6" width="480" x="90" y="190"/>
  <text fill="#1e40af" font-family="Arial, sans-serif" font-size="18" font-weight="bold" id="svg_7" text-anchor="middle" x="330" y="220">Major Projects</text>
  <rect fill="white" height="70" id="svg_8" rx="8" stroke="#cbd5e1" width="440" x="110" y="235"/>
  <text fill="#1e293b" font-family="Arial, sans-serif" font-size="14" font-weight="bold" id="svg_9" x="120" y="255">Python Desktop HRMS Application</text>
  <text fill="#64748b" font-family="Arial, sans-serif" font-size="12" id="svg_10" transform="matrix(1 0 0 1 0 0)" x="120" y="275">Python, PyQt5, MySQL</text>
  <text fill="#059669" font-family="Arial, sans-serif" font-size="12" font-weight="bold" id="svg_11" x="120" y="295">Status: Working On</text>
  <a href="#" id="svg_12">
   <rect fill="#3b82f6" height="25" id="svg_13" rx="4" width="80" x="450" y="258"/>
   <text fill="white" font-family="Arial, sans-serif" font-size="11" id="svg_14" text-anchor="middle" x="490" y="275">View Project</text>
  </a>
  <rect fill="white" height="70" id="svg_15" rx="8" stroke="#cbd5e1" width="440" x="110" y="315"/>
  <text fill="#1e293b" font-family="Arial, sans-serif" font-size="14" font-weight="bold" id="svg_16" x="120" y="335">Dynamic Data Entry Form Generator</text>
  <text fill="#64748b" font-family="Arial, sans-serif" font-size="12" id="svg_17" transform="matrix(1 0 0 1 0 0)" x="120" y="355">Python, tkinter, customtkinter, MySQL</text>
  <text fill="#059669" font-family="Arial, sans-serif" font-size="12" font-weight="bold" id="svg_18" x="120" y="375">Status: Working On</text>
  <a href="#" id="svg_19" transform="matrix(1 0 0 1 0 0) translate(0 -2)">
   <rect fill="#3b82f6" height="25" id="svg_20" rx="4" width="80" x="450" y="340"/>
   <text fill="white" font-family="Arial, sans-serif" font-size="11" id="svg_21" text-anchor="middle" x="490" y="357">View Project</text>
  </a>
  <rect fill="white" height="70" id="svg_22" rx="8" stroke="#cbd5e1" width="440" x="110" y="395"/>
  <text fill="#1e293b" font-family="Arial, sans-serif" font-size="14" font-weight="bold" id="svg_23" x="120" y="415">Real Life HRMS for SME Companies</text>
  <text fill="#64748b" font-family="Arial, sans-serif" font-size="12" id="svg_24" transform="matrix(1 0 0 1 0 0)" x="120" y="435">Visual Basic 6.0, MS Access</text>
  <text fill="#dc2626" font-family="Arial, sans-serif" font-size="12" font-weight="bold" id="svg_25" x="120" y="455">Status: Near Deployment !!</text>
  <a href="#" id="svg_26" transform="matrix(1 0 0 1 0 0) translate(0 -1)">
   <rect fill="#3b82f6" height="25" id="svg_27" rx="4" width="80" x="450" y="420"/>
   <text fill="white" font-family="Arial, sans-serif" font-size="11" id="svg_28" text-anchor="middle" x="490" y="437">View Project</text>
  </a>
  <rect fill="white" height="65" id="svg_29" rx="8" stroke="#cbd5e1" width="440" x="110" y="475"/>
  <text fill="#1e293b" font-family="Arial, sans-serif" font-size="14" font-weight="bold" id="svg_30" x="120" y="495">Complete Data Analysis with SQL</text>
  <text fill="#64748b" font-family="Arial, sans-serif" font-size="12" id="svg_31" transform="matrix(1 0 0 1 0 0)" x="120" y="515">SQL, Python, Tableau/Power BI</text>
  <text fill="#f59e0b" font-family="Arial, sans-serif" font-size="12" font-weight="bold" id="svg_32" x="120" y="533">Status: Upcoming</text>
  <a href="#" id="svg_33">
   <rect fill="#3b82f6" height="25" id="svg_34" rx="4" width="80" x="450" y="495"/>
   <text fill="white" font-family="Arial, sans-serif" font-size="11" id="svg_35" text-anchor="middle" x="490" y="512">View Project</text>
  </a>
  <rect fill="url(#minorProjectGradient)" height="193" id="svg_36" rx="12" stroke="#10b981" transform="matrix(1 0 0 1 0 0)" width="480" x="91" y="564"/>
  <text fill="#065f46" font-family="Arial, sans-serif" font-size="18" font-weight="bold" id="svg_37" text-anchor="middle" transform="matrix(1 0 0 1 0 0)" x="330" y="590">Minor Projects</text>
  <rect fill="white" height="70" id="svg_38" rx="8" stroke="#cbd5e1" transform="matrix(1 0 0 1 0 0)" width="440" x="111" y="599"/>
  <text fill="#1e293b" font-family="Arial, sans-serif" font-size="14" font-weight="bold" id="svg_39" transform="matrix(1 0 0 1 0 0)" x="119" y="622">Custom Trim Function in Excel</text>
  <text fill="#64748b" font-family="Arial, sans-serif" font-size="12" id="svg_40" transform="matrix(1 0 0 1 0 0)" x="120" y="642">VBA</text>
  <text fill="#059669" font-family="Arial, sans-serif" font-size="12" font-weight="bold" id="svg_41" transform="matrix(1 0 0 1 0 0)" x="120" y="660">Status: Complete</text>
  <a href="#" id="svg_42" transform="matrix(1 0 0 1 0 0) translate(1 -40) matrix(1 0 0 1 0 17)">
   <rect fill="#10b981" height="25" id="svg_43" rx="4" width="80" x="450" y="645"/>
   <text fill="white" font-family="Arial, sans-serif" font-size="11" id="svg_44" text-anchor="middle" x="490" y="662">View Project</text>
  </a>
  <rect fill="white" height="70" id="svg_45" rx="8" stroke="#cbd5e1" transform="matrix(1 0 0 1 0 0)" width="440" x="112" y="678"/>
  <text fill="#1e293b" font-family="Arial, sans-serif" font-size="14" font-weight="bold" id="svg_46" transform="matrix(1 0 0 1 0 0)" x="122" y="698">Python CLI CRUD Software</text>
  <text fill="#64748b" font-family="Arial, sans-serif" font-size="12" id="svg_47" transform="matrix(1 0 0 1 0 0)" x="122" y="719">Python, MySQL</text>
  <text fill="#059669" font-family="Arial, sans-serif" font-size="12" font-weight="bold" id="svg_48" transform="matrix(1 0 0 1 0 0)" x="121" y="738">Status: Complete</text>
  <a href="#" id="svg_49" transform="matrix(1 0 0 1 0 0) translate(0 -37) matrix(1 0 0 1 1 13)">
   <rect fill="#10b981" height="25" id="svg_50" rx="4" width="80" x="450" y="725"/>
   <text fill="white" font-family="Arial, sans-serif" font-size="11" id="svg_51" text-anchor="middle" x="490" y="742">View Project</text>
  </a>
  <rect fill="white" filter="url(#shadow)" height="300" id="svg_52" rx="16" stroke="#e2e8f0" stroke-width="2" transform="matrix(1 0 0 1 0 0)" width="520" x="572" y="134"/>
  <text fill="#1e293b" font-family="Arial, sans-serif" font-size="24" font-weight="bold" id="svg_53" text-anchor="middle" transform="matrix(1 0 0 1 0 0)" x="832" y="171">Internship Projects</text>
  <rect fill="url(#internshipGradient)" height="220" id="svg_54" rx="12" stroke="#f59e0b" transform="matrix(1 0 0 1 0 0)" width="480" x="592" y="191"/>
  <rect fill="white" height="71" id="svg_55" rx="8" stroke="#cbd5e1" transform="matrix(1 0 0 1 0 0)" width="440" x="612" y="221"/>
  <text fill="#1e293b" font-family="Arial, sans-serif" font-size="14" font-weight="bold" id="svg_56" transform="matrix(1 0 0 1 0 0)" x="622" y="241">Raw Data Collection and Cleaning</text>
  <text fill="#64748b" font-family="Arial, sans-serif" font-size="12" id="svg_57" transform="matrix(1 0 0 1 0 0)" x="622" y="261">Tech: Excel, Instant Data Scraper</text>
  <text fill="#059669" font-family="Arial, sans-serif" font-size="12" font-weight="bold" id="svg_58" transform="matrix(1 0 0 1 0 0)" x="622" y="281">Status: Complete</text>
  <a href="#" id="svg_59" transform="matrix(1 0 0 1 0 0) translate(0 -6) matrix(1 0 0 1 -38 21)">
   <rect fill="#f59e0b" height="25" id="svg_60" rx="4" width="80" x="990" y="230"/>
   <text fill="white" font-family="Arial, sans-serif" font-size="11" id="svg_61" text-anchor="middle" x="1030" y="247">View Project</text>
  </a>
 </g>
</svg>